<mxfile host="app.diagrams.net" modified="2023-10-09T14:23:10.927Z" agent="Mozilla/5.0 (Windows NT 10.0; Win64; x64) AppleWebKit/537.36 (KHTML, like Gecko) Chrome/117.0.0.0 Safari/537.36" version="22.0.4" etag="Pc1A8L5J-TeuxauTF-j0" type="github">
  <diagram name="Page-1" id="56D8bgS0sk7qAVuSZqYY">
    <mxGraphModel>
      <root>
        <mxCell id="0" />
        <mxCell id="1" parent="0" />
      </root>
    </mxGraphModel>
  </diagram>
</mxfile>
